<?xml version="1.0" encoding="UTF-8" standalone="no"?>
<svg
   version="1.0"
   width="1007.1511pt"
   height="627.71661pt"
   viewBox="0 0 1007.1511 627.71661"
   preserveAspectRatio="xMidYMid"
   id="svg6"
   sodipodi:docname="ISEN-Nantes-fond-blanc.svg"
   inkscape:version="1.4 (86a8ad7, 2024-10-11)"
   xmlns:inkscape="http://www.inkscape.org/namespaces/inkscape"
   xmlns:sodipodi="http://sodipodi.sourceforge.net/DTD/sodipodi-0.dtd"
   xmlns="http://www.w3.org/2000/svg"
   xmlns:svg="http://www.w3.org/2000/svg">
  <defs
     id="defs6" />
  <sodipodi:namedview
     id="namedview6"
     pagecolor="#ffffff"
     bordercolor="#000000"
     borderopacity="0.25"
     inkscape:showpageshadow="2"
     inkscape:pageopacity="0.0"
     inkscape:pagecheckerboard="0"
     inkscape:deskcolor="#d1d1d1"
     inkscape:document-units="pt"
     inkscape:zoom="0.36604644"
     inkscape:cx="891.96332"
     inkscape:cy="562.77012"
     inkscape:window-width="1440"
     inkscape:window-height="788"
     inkscape:window-x="-6"
     inkscape:window-y="-6"
     inkscape:window-maximized="1"
     inkscape:current-layer="svg6">
    <inkscape:page
       x="0"
       y="0"
       width="1007.1511"
       height="627.71661"
       id="page6"
       margin="0 2.0488932 0 0"
       bleed="0" />
  </sodipodi:namedview>
  <g
     transform="matrix(0.1,0,0,-0.1,-139.72874,775.78779)"
     fill="#000000"
     stroke="none"
     id="g6"
     style="fill:#ff0000">
    <path
       d="m 3859,7351 c -339,-63 -603,-258 -749,-554 -77,-155 -103,-268 -104,-452 -1,-180 20,-276 89,-423 57,-120 113,-198 211,-293 177,-171 384,-263 645,-288 156,-15 254,-57 358,-155 241,-228 252,-555 26,-781 -121,-121 -244,-171 -404,-162 -163,8 -285,72 -396,207 -68,83 -117,117 -157,107 -32,-9 -384,-262 -398,-287 -32,-60 13,-151 146,-290 219,-229 504,-350 824,-350 262,0 491,77 701,234 287,216 459,560 459,916 0,432 -251,837 -639,1030 -143,72 -238,96 -503,128 -103,13 -177,50 -254,126 -99,99 -139,215 -122,351 17,129 112,257 237,318 63,30 72,32 181,32 103,0 121,-3 170,-26 31,-14 83,-51 117,-82 65,-61 91,-69 133,-40 14,9 103,77 198,151 115,89 174,142 178,158 10,40 -14,79 -93,155 -131,124 -276,204 -451,250 -86,23 -324,34 -403,20 z"
       id="path1"
       style="fill:#ff0000" />
    <path
       d="m 1872,7273 c -18,-9 -41,-30 -50,-47 -16,-29 -17,-152 -20,-1706 l -2,-1675 22,-45 c 13,-25 38,-55 57,-67 32,-22 44,-23 203,-23 191,0 226,10 263,72 20,33 20,51 20,1718 0,1612 -1,1687 -18,1722 -31,61 -59,68 -264,68 -144,0 -184,-4 -211,-17 z"
       id="path2"
       style="fill:#ff0000" />
    <path
       d="m 5696,7267 c -25,-14 -48,-39 -63,-66 l -23,-44 V 5501 c 0,-1117 4,-1668 11,-1693 5,-21 21,-50 34,-65 l 23,-28 1014,-3 1015,-2 33,22 c 67,45 75,73 75,258 0,182 -7,208 -68,254 -28,21 -36,21 -751,26 -777,5 -733,2 -778,55 -35,42 -39,90 -36,471 l 3,370 25,36 c 52,77 13,72 700,78 l 615,5 34,24 c 59,42 71,85 71,256 0,137 -2,155 -22,195 -42,84 -11,80 -693,80 h -601 l -44,23 c -30,14 -53,36 -68,62 -22,40 -22,43 -20,372 3,319 4,333 24,360 11,15 36,38 54,51 l 33,22 h 707 707 l 33,23 c 62,41 74,75 78,226 6,202 -16,268 -101,300 -19,8 -339,11 -1005,11 h -977 z"
       id="path3"
       style="fill:#ff0000" />
    <path
       d="m 8462,7273 c -18,-9 -41,-30 -50,-47 -16,-29 -17,-152 -20,-1706 l -2,-1675 22,-45 c 13,-25 38,-55 57,-67 32,-22 44,-23 203,-23 149,0 173,2 208,20 80,41 74,-44 80,1133 l 5,1049 24,19 c 29,24 56,18 91,-19 14,-15 345,-484 735,-1042 407,-581 732,-1037 762,-1066 82,-82 116,-94 267,-94 140,0 165,7 210,60 l 26,32 v 1697 1698 l -23,34 c -37,55 -54,59 -250,59 -201,0 -234,-8 -264,-62 -17,-31 -18,-93 -23,-1089 -4,-875 -7,-1059 -19,-1072 -19,-24 -55,-21 -85,6 -14,12 -354,488 -756,1057 -402,569 -750,1054 -773,1078 -71,74 -96,82 -254,82 -107,0 -145,-4 -171,-17 z"
       id="path4"
       style="fill:#ff0000" />
    <path
       d="m 1802,2398 3,-503 h 2370 2370 l 3,503 2,502 H 4175 1800 Z m 4266,371 c 58,-12 123,-62 142,-109 16,-38 12,-42 -68,-68 -58,-20 -63,-20 -69,-4 -20,56 -84,83 -147,62 -42,-13 -66,-43 -66,-81 0,-37 20,-51 153,-107 65,-28 133,-62 152,-77 117,-88 93,-271 -45,-349 -48,-27 -66,-31 -153,-34 -93,-4 -101,-3 -162,27 -48,24 -71,43 -94,78 -17,26 -31,52 -31,58 0,10 141,71 144,63 33,-73 39,-80 73,-95 57,-23 121,-13 155,26 61,68 25,115 -132,175 -117,45 -168,78 -200,131 -31,50 -26,155 9,207 61,89 197,128 339,97 z M 2514,2545 c 65,-118 130,-244 145,-279 l 27,-65 -4,280 -5,279 h 77 76 v -375 -375 h -103 -103 l -128,241 c -71,132 -136,260 -145,283 -15,41 -16,31 -13,-240 l 4,-284 h -76 -76 v 375 375 h 103 103 z m 1007,-145 c 71,-195 132,-363 135,-372 5,-16 -3,-18 -79,-18 h -85 l -32,90 -32,90 h -148 -148 l -33,-90 -32,-90 h -78 c -48,0 -79,4 -79,10 0,6 62,175 137,376 l 137,365 104,-3 104,-3 z m 531,155 c 60,-110 125,-234 144,-275 l 33,-75 1,278 v 277 h 75 75 l -2,-372 -3,-373 -102,-3 c -97,-3 -103,-2 -116,20 -29,45 -244,454 -260,493 -15,38 -16,29 -16,-237 l -1,-278 h -75 -75 v 375 376 l 106,-3 105,-3 z m 968,140 v -65 h -100 -100 v -310 -310 h -80 -80 v 310 309 l -102,3 -103,3 -3,63 -3,62 h 286 285 z m 570,5 v -60 l -162,-2 -163,-3 -3,-87 -3,-88 h 156 155 v -60 -59 l -152,-3 -153,-3 -3,-97 -3,-98 h 171 170 v -65 -65 h -250 -250 v 375 375 h 245 245 z"
       id="path5"
       style="fill:#ff0000" />
    <path
       d="m 3275,2595 c -5,-16 -30,-87 -56,-157 l -47,-128 h 109 109 l -49,139 c -27,76 -51,147 -53,157 -4,15 -7,12 -13,-11 z"
       id="path6"
       style="fill:#ff0000" />
  </g>
</svg>
